<?xml version="1.0" encoding="UTF-8"?>
<svg width="500" height="500" viewBox="-250 -250 500 500" xmlns="http://www.w3.org/2000/svg">
<g transform="scale(2.0)">
  <!-- Center marker -->
  <circle id="center" cx="0" cy="0" r="1" />

  <!-- Main solar disc (hull for collision) -->
  <circle class="hull" cx="0" cy="0" r="200" fill="none" stroke="#FFD700" stroke-width="4"/>

  <!-- Solar prominences (part of silhouette, stay static) -->
  <polyline points="-180,-90 -215,-105 -195,-55" fill="none" stroke="#FF6600" stroke-width="2"/>
  <polyline points="140,140 175,165 155,115" fill="none" stroke="#FF6600" stroke-width="2"/>
  <polyline points="50,-190 55,-230 85,-180" fill="none" stroke="#FF6600" stroke-width="2"/>
  <polyline points="-100,180 -120,220 -75,185" fill="none" stroke="#FF6600" stroke-width="2"/>

  <!-- Corona rays (static outline) -->
  <line x1="0" y1="-200" x2="0" y2="-225" stroke="#FFA500" stroke-width="1"/>
  <line x1="200" y1="0" x2="225" y2="0" stroke="#FFA500" stroke-width="1"/>
  <line x1="0" y1="200" x2="0" y2="225" stroke="#FFA500" stroke-width="1"/>
  <line x1="-200" y1="0" x2="-225" y2="0" stroke="#FFA500" stroke-width="1"/>
  <line x1="141" y1="-141" x2="159" y2="-159" stroke="#FFA500" stroke-width="0.8"/>
  <line x1="141" y1="141" x2="159" y2="159" stroke="#FFA500" stroke-width="0.8"/>
  <line x1="-141" y1="141" x2="-159" y2="159" stroke="#FFA500" stroke-width="0.8"/>
  <line x1="-141" y1="-141" x2="-159" y2="-159" stroke="#FFA500" stroke-width="0.8"/>
</g>
</svg>
