<?xml version="1.0" encoding="UTF-8"?>
<svg width="100" height="100" viewBox="0 0 100 100" xmlns="http://www.w3.org/2000/svg">
    <g transform="rotate(90)">
      <!-- Main hull -->
      <path d="M50,15 L60,40 L60,70 L50,85 L40,70 L40,40 Z" fill="none" stroke="white" stroke-width="2"/>
      <!-- Secondary hull sections -->
      <rect x="35" y="40" width="30" height="8" fill="none" stroke="white" stroke-width="2"/>
      <rect x="38" y="62" width="24" height="6" fill="none" stroke="white" stroke-width="2"/>
      <!-- Bridge/Cockpit -->
      <path d="M50,20 L55,30 L50,35 L45,30 Z" fill="none" stroke="white" stroke-width="2"/>
      <!-- Engine pods -->
      <!--<rect x="32" y="75" width="6" height="12" fill="none" stroke="white" stroke-width="2"/>
      <rect x="62" y="75" width="6" height="12" fill="none" stroke="white" stroke-width="2"/>-->
      
      <rect x="32" y="75" width="6" height="12" slot="engine" />
      <rect x="62" y="75" width="6" height="12" slot="engine" />
      
      <!-- Wing assemblies -->
      <path d="M40,50 L25,45 L15,50 L25,55 L40,55" fill="none" stroke="white" stroke-width="2"/>
      <path d="M60,50 L75,45 L85,50 L75,55 L60,55" fill="none" stroke="white" stroke-width="2"/>
      <!-- Wing weapons/details -->
      <!--<circle cx="15" cy="50" r="3" fill="none" stroke="white" stroke-width="1"/>
      <circle cx="85" cy="50" r="3" fill="none" stroke="white" stroke-width="1"/>-->
      <!-- Hull details -->
      <line x1="45" y1="25" x2="55" y2="25" stroke="white" stroke-width="1"/>
      <line x1="43" y1="55" x2="57" y2="55" stroke="white" stroke-width="1"/>
    </g>
</svg> 